:SAMPLES-PER-SECOND 30
:FULLY-SPECIFIED
:DEGREES
68
root  -0.0894721 39.684 2.50388 13.8481 -89.4804 -20.6791
RightUpLeg  2.923 -9.74901 -12.2824
RightLeg  10.0553 -4.55604 -1.56429
RightFoot  -0.726434 -1.42774 15.2363
RightToes  -6.40286e-010 0 -3.6325e-017
Spine  14.2438 -0.932209 2.3168
Spine1  -4.09556 -0.67672 -1.12081
HEad  1.9091 -1.99614 -3.09658
LeftShoulder1  3.10476 -8.73397 -18.8429
LeftArm  -0.693242 7.52937 -50.831
LeftForeArm  3.32352 -8.36591 -13.4273
LeftHand  -0.0214858 3.99937 0.0203294
RightShoulder  1.70289 3.4116 18.1211
RightArm  5.45824 -9.89325 46.9694
RightForeArm  2.24515 12.5247 12.1812
RightHand  -0.841689 -0.0972777 -18.4415
LeftUpLeg  3.18588 9.13583 11.9272
LeftLeg  9.86199 3.64015 3.23221
LeftFoot  -3.09442 1.06216 -14.4256
LeftToes  -2.09187e-010 -4.93792e-011 -8.21189e-011
69
root  -0.00887761 39.4648 2.70756 -155.578 -87.9183 148.888
RightUpLeg  -0.782012 -10.8917 -14.3232
RightLeg  15.3374 -0.505914 -0.370706
RightFoot  -1.87246 -1.35239 16.0798
RightToes  -6.40286e-010 0 -3.6325e-017
Spine  15.2859 -0.376798 0.429429
Spine1  -4.58409 -0.327357 -1.79064
HEad  0.612323 0.543751 -2.82869
LeftShoulder1  2.94929 -8.48093 -18.0204
LeftArm  2.68894 5.62834 -50.1726
LeftForeArm  -2.78711 -12.6155 -11.7052
LeftHand  -0.0155272 4.5022 -1.17932
RightShoulder  1.73823 3.45109 18.5202
RightArm  7.08745 -11.2232 47.9941
RightForeArm  0.49706 13.6909 11.5945
RightHand  -0.895117 0.242079 -18.4424
LeftUpLeg  2.44724 9.57177 10.9382
LeftLeg  12.574 5.2626 3.21379
LeftFoot  -5.02868 0.863542 -15.0577
LeftToes  -2.09187e-010 -4.93792e-011 -8.21189e-011
70
root  0.103915 39.1901 2.88678 -161.489 -85.1608 154.809
RightUpLeg  -5.47896 -12.8505 -16.4178
RightLeg  22.3377 5.04958 2.10443
RightFoot  -1.38879 -1.55365 17.5589
RightToes  -6.40286e-010 0 -3.6325e-017
Spine  16.6029 0.127696 -1.12654
Spine1  -5.1886 0.0499501 -2.76372
HEad  -0.970061 3.12468 -2.45504
LeftShoulder1  2.76663 -8.15405 -17.0707
LeftArm  5.20237 2.96122 -49.1285
LeftForeArm  -8.43276 -16.2283 -9.60642
LeftHand  -0.00728215 4.12663 -1.51823
RightShoulder  1.78864 3.52591 19.0087
RightArm  8.80914 -13.3412 49.2841
RightForeArm  -1.16897 15.2476 10.649
RightHand  -0.916364 0.401399 -18.37
LeftUpLeg  1.45236 9.84882 10.0573
LeftLeg  15.9619 7.08983 3.41399
LeftFoot  -7.02522 0.642771 -15.852
LeftToes  -2.09187e-010 -4.93792e-011 -8.21189e-011
71
root  0.188737 38.8621 3.0066 -166.12 -83.1594 159.115
RightUpLeg  -9.61594 -13.8884 -18.0467
RightLeg  29.3687 11.0456 6.45298
RightFoot  0.0238549 -2.16533 21.5041
RightToes  -6.40286e-010 0 -3.6325e-017
Spine  17.9711 0.204244 -2.00101
Spine1  -5.41001 0.0372738 -3.72063
HEad  -2.90668 5.96592 -2.41556
LeftShoulder1  2.59136 -7.82389 -16.14
LeftArm  6.28456 -0.0966545 -47.6901
LeftForeArm  -12.876 -19.2429 -7.60973
LeftHand  -0.0260978 3.84344 0.374223
RightShoulder  1.82768 3.62314 19.2254
RightArm  9.07014 -15.8507 50.9985
RightForeArm  -1.39434 16.1858 9.95675
RightHand  -0.918773 0.474342 -18.1969
LeftUpLeg  0.117464 9.61859 9.80919
LeftLeg  20.4002 8.62108 4.18678
LeftFoot  -9.01521 0.386854 -16.2901
LeftToes  -2.09187e-010 -4.93792e-011 -8.21189e-011
72
root  0.179039 38.5267 3.01008 -172.028 -82.18 164.435
RightUpLeg  -12.038 -14.2198 -19.3029
RightLeg  34.1674 15.8216 11.0003
RightFoot  0.511945 -2.79222 26.5246
RightToes  -6.40286e-010 0 -3.6325e-017
Spine  19.0305 -0.0946214 -2.76408
Spine1  -5.01099 -0.481246 -3.80853
HEad  -4.94951 9.07157 -2.77066
LeftShoulder1  2.43876 -7.54139 -15.2706
LeftArm  5.35977 -2.89885 -46.1552
LeftForeArm  -14.6394 -22.0157 -6.09451
LeftHand  -0.0802812 4.02003 5.22722
RightShoulder  1.85289 3.70031 19.3056
RightArm  6.58326 -18.3285 52.5686
RightForeArm  0.385172 15.7367 10.1176
RightHand  -0.875437 0.461901 -17.3843
LeftUpLeg  -0.916763 9.41272 10.5471
LeftLeg  24.6688 9.05648 4.88996
LeftFoot  -10.7852 0.145118 -16.6132
LeftToes  -2.09187e-010 -4.93792e-011 -8.21189e-011
73
root  0.0686026 38.3001 2.87636 -177.977 -81.6788 169.86
RightUpLeg  -12.8817 -14.2243 -20.346
RightLeg  34.788 15.7715 11.2718
RightFoot  0.468308 -2.98852 28.3369
RightToes  -6.40286e-010 0 -3.6325e-017
Spine  19.4919 -0.440188 -3.87201
Spine1  -4.1483 -1.20989 -2.74563
HEad  -6.73433 12.111 -3.01473
LeftShoulder1  2.318 -7.38187 -14.4103
LeftArm  1.53115 -5.10489 -44.6757
LeftForeArm  -12.6351 -24.313 -5.74177
LeftHand  -0.130698 4.28845 12.1615
RightShoulder  1.88276 3.71523 19.6953
RightArm  1.15915 -20.7679 53.3922
RightForeArm  2.81447 13.8482 11.0693
RightHand  -0.788332 0.339034 -16.007
LeftUpLeg  -0.975166 10.0289 11.9771
LeftLeg  26.8854 8.1566 4.83153
LeftFoot  -11.8436 -0.00564009 -17.2996
LeftToes  -2.09187e-010 -4.93792e-011 -8.21189e-011
74
root  -0.0946007 38.2407 2.60425 176.634 -81.1945 175.1
RightUpLeg  -12.9624 -13.9965 -21.0091
RightLeg  31.3488 9.29357 5.91917
RightFoot  2.81201 -3.10287 24.9925
RightToes  -6.40286e-010 0 -3.6325e-017
Spine  19.3793 -0.738739 -5.1723
Spine1  -3.26082 -1.9172 -1.01164
HEad  -7.99628 14.8577 -2.75389
LeftShoulder1  2.20419 -7.29569 -13.4379
LeftArm  -2.61124 -6.51113 -43.3485
LeftForeArm  -9.4714 -25.985 -6.05101
LeftHand  -0.180624 4.36831 19.6079
RightShoulder  1.92561 3.68634 20.4499
RightArm  -6.40897 -23.2564 53.587
RightForeArm  5.09649 10.6637 12.2504
RightHand  -0.684489 0.0177277 -14.7292
LeftUpLeg  -0.287835 10.63 13.6335
LeftLeg  26.8841 7.40239 4.42484
LeftFoot  -11.911 -0.0202726 -18.3112
LeftToes  -2.09187e-010 -4.93792e-011 -8.21189e-011
75
root  -0.272872 38.2634 2.15865 170.529 -80.6589 -178.638
RightUpLeg  -12.6809 -13.6067 -20.8846
RightLeg  26.4129 1.0045 0.311823
RightFoot  8.23109 -3.40867 19.8845
RightToes  -6.40286e-010 0 -3.6325e-017
Spine  19.1174 -1.07655 -6.41221
Spine1  -2.83305 -2.62144 0.920848
HEad  -8.58929 17.4578 -2.12458
LeftShoulder1  2.0314 -7.03704 -12.1768
LeftArm  -3.82162 -6.89905 -42.4311
LeftForeArm  -7.12521 -26.94 -6.16048
LeftHand  -0.209389 4.46563 26.2554
RightShoulder  1.96436 3.66395 21.1201
RightArm  -14.1697 -25.6934 53.6425
RightForeArm  7.90263 6.56764 12.8791
RightHand  -0.551981 -0.6383 -13.4529
LeftUpLeg  0.502517 10.4319 15.5532
LeftLeg  26.1003 7.6679 4.42666
LeftFoot  -11.3255 0.0704806 -19.4296
LeftToes  -2.09187e-010 -4.93792e-011 -8.21189e-011
76
root  -0.466756 38.2526 1.52317 162.272 -79.8361 -170.195
RightUpLeg  -12.0889 -13.4012 -19.6751
RightLeg  22.0167 -1.44613 -0.913229
RightFoot  13.0546 -4.21909 19.6759
RightToes  -6.40286e-010 0 -3.6325e-017
Spine  19.1101 -1.38073 -7.4063
Spine1  -2.97676 -3.28102 3.03963
HEad  -8.5276 20.1388 -1.32122
LeftShoulder1  1.77929 -6.42636 -10.6733
LeftArm  -1.35766 -6.28272 -42.1272
LeftForeArm  -4.70564 -26.9351 -6.0381
LeftHand  -0.173185 4.73177 31.0232
RightShoulder  1.97612 3.63711 21.407
RightArm  -19.2996 -28.0511 53.5383
RightForeArm  10.494 2.99416 12.5183
RightHand  -0.376952 -1.55206 -11.2049
LeftUpLeg  1.24549 9.50183 18.1925
LeftLeg  25.6506 8.45718 4.75236
LeftFoot  -10.7715 0.170054 -21.1029
LeftToes  -2.09187e-010 -4.93792e-011 -8.21189e-011
77
root  -0.684856 38.1225 0.726401 153.566 -78.4523 -161.215
RightUpLeg  -12.0198 -13.6289 -17.2149
RightLeg  20.0339 2.87143 0.972328
RightFoot  14.3615 -5.53985 24.4508
RightToes  -6.40286e-010 0 -3.6325e-017
Spine  19.1583 -1.52418 -8.24884
Spine1  -3.38595 -3.78992 5.43706
HEad  -8.08855 22.869 -0.206183
LeftShoulder1  1.52731 -5.58261 -9.44558
LeftArm  4.04474 -4.86893 -42.188
LeftForeArm  -1.93785 -26.0527 -5.69145
LeftHand  -0.177117 4.76293 33.3183
RightShoulder  1.95368 3.52704 21.5308
RightArm  -21.4203 -30.6184 52.5849
RightForeArm  11.2208 1.75704 11.6897
RightHand  -0.241623 -1.93925 -7.95824
LeftUpLeg  1.736 7.98193 21.5293
LeftLeg  25.968 9.23764 5.21319
LeftFoot  -10.6801 0.202242 -23.8891
LeftToes  -2.09187e-010 -4.93792e-011 -8.21189e-011
78
root  -0.903176 37.8194 -0.188611 146.402 -76.9635 -153.366
RightUpLeg  -13.1912 -14.1498 -13.8796
RightLeg  21.7187 8.17949 3.38719
RightFoot  12.1771 -5.73127 27.4407
RightToes  -6.40286e-010 0 -3.6325e-017
Spine  18.969 -1.68476 -9.26358
Spine1  -3.90242 -4.33934 8.13545
HEad  -7.64685 25.4632 1.30212
LeftShoulder1  1.37537 -4.82064 -9.12881
LeftArm  10.5525 -2.58309 -42.0172
LeftForeArm  0.129762 -24.7767 -5.27644
LeftHand  -0.342891 4.20125 33.4419
RightShoulder  1.88903 3.25822 21.6936
RightArm  -22.9884 -33.6055 50.3841
RightForeArm  9.32387 3.72343 10.8338
RightHand  -0.191748 -1.11547 -5.15714
LeftUpLeg  1.05486 5.45667 24.9225
LeftLeg  27.7612 10.5393 6.31976
LeftFoot  -10.8293 0.187548 -27.0414
LeftToes  -2.09187e-010 -4.93792e-011 -8.21189e-011
